# xmcd
#
# Track frame offsets: 
#        150
#        31135
#        56139
#        99561
#        142147
#        178725
#        198319
#        224886
#        251638
#        283061
#        311015
#
# Disc length: 4465 seconds
#
# Revision: 4
# Processed by: cddbd v1.5.2PL0 Copyright (c) Steve Scherf et al.
# Submitted via: ExactAudioCopy v0.99pb4
#
DISCID=b3116f0b
DTITLE=Sharin - Hearts In Harmony
DYEAR=1900
DGENRE=New Age
TTITLE0=Lightness
TTITLE1=Tender Hands
TTITLE2=Musical Touch
TTITLE3=Consolation
TTITLE4=Soeria
TTITLE5=Hearts in Harmony
TTITLE6=Marlene
TTITLE7=Future
TTITLE8=Children's Fun
TTITLE9=Going Home
TTITLE10=Eternity
EXTD=Music For Relaxation
EXTT0=
EXTT1=
EXTT2=
EXTT3=
EXTT4=
EXTT5=
EXTT6=
EXTT7=
EXTT8=
EXTT9=
EXTT10=
PLAYORDER=
